# xmcd
#
# Track frame offsets: 
#        150
#        19703
#        40314
#        56433
#        76421
#        97166
#        117958
#        137803
#        156710
#        179114
#        203273
#
# Disc length: 2946 seconds
#
# Revision: 2
# Processed by: cddbd v1.5.2PL0 Copyright (c) Steve Scherf et al.
# Submitted via: ExactAudioCopy v0.95b2
#
DISCID=980b800b
DTITLE=BoA - Miracle
DYEAR=2002
DGENRE=Pop
TTITLE0=Destiny
TTITLE1=Every Heart
TTITLE2=VALENTI
TTITLE3=Feering deep inside
TTITLE4=Share your heart(WITH ME)
TTITLE5=Happiness
TTITLE6=Snow White
TTITLE7=Nobody but you
TTITLE8=Next Step
TTITLE9=Nothing's gonna change
TTITLE10=Listen to my Heart(Bonus Track)
EXTD=YEAR: 2002
EXTT0=
EXTT1=
EXTT2=
EXTT3=
EXTT4=
EXTT5=
EXTT6=
EXTT7=
EXTT8=
EXTT9=
EXTT10=
PLAYORDER=
